<svg 
 xmlns="http://www.w3.org/2000/svg"
 xmlns:xlink="http://www.w3.org/1999/xlink"
 width="20px" height="30px" viewBox="0 0 20 30">
<path fill-rule="evenodd"  fill="rgb(255, 255, 255)"
 d="M19.894,11.218 C19.744,11.370 19.501,11.370 19.351,11.218 L10.387,2.105 L10.387,25.841 C10.387,26.057 10.215,26.231 10.003,26.231 C9.791,26.231 9.619,26.057 9.619,25.841 L9.619,2.101 L0.654,11.218 C0.505,11.370 0.261,11.370 0.112,11.218 C-0.038,11.066 -0.038,10.818 0.112,10.666 L9.730,0.885 C9.802,0.813 9.899,0.771 10.001,0.771 C10.002,0.771 10.002,0.772 10.002,0.772 C10.003,0.772 10.003,0.771 10.003,0.771 C10.111,0.771 10.206,0.817 10.276,0.890 L19.894,10.666 C20.043,10.818 20.043,11.066 19.894,11.218 Z"/>
</svg>