<svg 
 xmlns="http://www.w3.org/2000/svg"
 xmlns:xlink="http://www.w3.org/1999/xlink"
 width="0.228in" height="0.305in" viewBox="0 0 20 30">
<path fill-rule="evenodd"  fill="#A0A0A0"
 d="M19.894,16.333 L10.276,26.110 C10.206,26.182 10.111,26.228 10.003,26.228 C10.003,26.228 10.003,26.228 10.002,26.228 C10.002,26.228 10.002,26.228 10.001,26.228 C9.899,26.228 9.802,26.187 9.730,26.114 L0.112,16.333 C-0.038,16.181 -0.038,15.934 0.112,15.782 C0.261,15.629 0.505,15.629 0.654,15.782 L9.619,24.898 L9.619,1.158 C9.619,0.943 9.791,0.769 10.003,0.769 C10.215,0.769 10.387,0.943 10.387,1.158 L10.387,24.894 L19.351,15.782 C19.501,15.629 19.744,15.629 19.894,15.782 C20.043,15.934 20.043,16.181 19.894,16.333 Z"/>
</svg>